<svg width="73" height="89" viewBox="0 0 73 89" fill="none" xmlns="http://www.w3.org/2000/svg">
<path d="M18.479 34.4951L38.7362 0.347168C44.7169 13.2732 44.7169 12.8874 51.4694 27.7427C39.2764 20.3343 30.0546 25.5562 26.9677 29.0931C29.5401 28.9645 36.6141 29.0931 40.8584 30.2507C45.7973 31.4854 50.5047 35.0739 55.3279 35.4597C52.0481 37.0674 45.1028 38.9217 37.7716 35.4597C30.8263 32.18 21.8874 33.2089 18.479 34.4951Z" fill="white"/>
<path d="M36.6142 47.9998C22.8778 40.9001 13.3344 45.4276 10.3762 48.5787C15.7782 36.2314 30.6335 36.6172 38.7363 41.2474C44.91 45.5689 57 46.1349 62.2733 45.8776C59.4437 49.5432 50.3505 55.0994 36.6142 47.9998Z" fill="white"/>
<path d="M34.6849 62.2767C18.7878 51.9359 7.09645 56.8747 3.62378 60.7333C14.0418 43.177 29.8617 49.3505 37.7717 55.1383C44.91 60.3614 60.9228 62.2767 69.7974 61.3121C64.4598 65.878 49.5141 71.9229 34.6849 62.2767Z" fill="white"/>
<path d="M9.36527 83.2571C9.50932 83.607 9.62765 83.8642 9.72026 84.0288C9.82315 84.1935 9.93119 84.3015 10.0444 84.3529C10.1576 84.3941 10.2965 84.425 10.4611 84.4456V84.8005H6.15498V84.4456C6.56656 84.425 6.79292 84.3015 6.83408 84.0751C6.88553 83.8488 6.84952 83.5761 6.72604 83.2571L5.95434 81.2507C5.8926 81.3021 5.81029 81.3382 5.70739 81.3587C5.61479 81.369 5.51189 81.3742 5.39871 81.3742H3.65466C3.43858 81.3742 3.27395 81.3999 3.16077 81.4513C3.04759 81.5028 2.94984 81.6314 2.86752 81.8372L2.31189 83.2571C2.17813 83.5967 2.18842 83.8745 2.34276 84.0906C2.4971 84.3066 2.80064 84.425 3.25337 84.4456V84.8005H0.444371V84.4456C0.670737 84.425 0.861091 84.3118 1.01543 84.106C1.18006 83.8899 1.32926 83.607 1.46302 83.2571L4.42636 75.7562C4.53955 75.4886 4.6373 75.2263 4.71961 74.969C4.81222 74.7118 4.89453 74.4494 4.96656 74.1819H5.86173C5.93376 74.4494 6.01608 74.7118 6.10868 74.969C6.20128 75.2263 6.29903 75.4886 6.40193 75.7562L9.36527 83.2571ZM5.32154 80.7105C5.46559 80.7105 5.5582 80.6899 5.59935 80.6488C5.6508 80.5973 5.64566 80.4944 5.58392 80.3401L4.51897 77.7009H4.4881L3.28424 80.7722C3.33569 80.7414 3.39743 80.7259 3.46945 80.7259C3.54148 80.7156 3.62379 80.7105 3.7164 80.7105H5.32154ZM13.4258 88.4275C12.9833 88.4275 12.5563 88.3864 12.1447 88.3041C11.7434 88.232 11.4142 88.088 11.157 87.8719C10.8997 87.6661 10.7711 87.3677 10.7711 86.9767C10.7711 86.6063 10.8894 86.2719 11.1261 85.9735C11.373 85.6854 11.6766 85.4693 12.0367 85.3253L12.3917 85.387C12.2991 85.5928 12.2322 85.7883 12.191 85.9735C12.1499 86.1587 12.1293 86.3234 12.1293 86.4674C12.1293 86.8687 12.2888 87.1774 12.6078 87.3935C12.937 87.6198 13.3846 87.733 13.9505 87.733C14.4753 87.733 14.9074 87.6507 15.247 87.4861C15.5865 87.3214 15.8386 87.1156 16.0033 86.8687C16.1679 86.632 16.2502 86.4057 16.2502 86.1896C16.2502 86.025 16.1885 85.8706 16.065 85.7266C15.9518 85.5825 15.7152 85.4848 15.355 85.4333L12.2219 84.9549C11.8926 84.9034 11.656 84.7748 11.5119 84.569C11.3782 84.3632 11.3113 84.1266 11.3113 83.8591C11.3113 83.4989 11.4193 83.1491 11.6354 82.8095C11.8515 82.4597 12.155 82.1613 12.546 81.9144C12.083 81.7292 11.7074 81.4668 11.4193 81.1272C11.1415 80.7774 11.0026 80.3504 11.0026 79.8462C11.0026 79.342 11.1467 78.9099 11.4348 78.5497C11.7229 78.1793 12.1087 77.8964 12.5923 77.7009C13.0862 77.5054 13.647 77.4076 14.2746 77.4076C15.0463 77.4076 15.7049 77.5517 16.2502 77.8398C16.5795 77.7986 16.847 77.6494 17.0528 77.3922C17.2688 77.1247 17.3769 76.7388 17.3769 76.2346H17.7319C17.9891 76.3684 18.164 76.5279 18.2566 76.7131C18.3492 76.888 18.3955 77.0629 18.3955 77.2378C18.3955 77.598 18.2566 77.8758 17.9788 78.0713C17.701 78.2565 17.3357 78.3388 16.883 78.3182C17.0579 78.5034 17.1917 78.7195 17.2843 78.9665C17.3872 79.2031 17.4386 79.4655 17.4386 79.7536C17.4386 80.2578 17.2946 80.6951 17.0065 81.0655C16.7184 81.4256 16.3274 81.7034 15.8335 81.8989C15.3396 82.0944 14.784 82.1922 14.1666 82.1922C13.7859 82.1922 13.4258 82.1562 13.0862 82.0841C12.9319 82.2179 12.8547 82.3671 12.8547 82.5317C12.8547 82.6038 12.8753 82.6758 12.9164 82.7478C12.9576 82.8095 13.0502 82.8507 13.1943 82.8713L16.8213 83.4269C17.4592 83.5298 17.8965 83.7356 18.1332 84.0443C18.3698 84.3427 18.4881 84.6719 18.4881 85.032C18.4881 85.3819 18.3904 85.7523 18.1949 86.1433C17.9994 86.5446 17.6959 86.915 17.2843 87.2546C16.8727 87.6044 16.3479 87.8874 15.71 88.1034C15.0721 88.3195 14.3106 88.4275 13.4258 88.4275ZM14.2901 81.6057C14.6193 81.6057 14.8663 81.4513 15.0309 81.1427C15.1955 80.834 15.2779 80.4224 15.2779 79.9079C15.2779 79.3009 15.1698 78.8327 14.9537 78.5034C14.7479 78.1639 14.4804 77.9941 14.1512 77.9941C13.8322 77.9941 13.5852 78.1484 13.4103 78.4571C13.2457 78.7658 13.1634 79.1774 13.1634 79.6919C13.1634 80.2886 13.2714 80.7568 13.4875 81.0964C13.7036 81.4359 13.9711 81.6057 14.2901 81.6057ZM22.8437 85.032C22.144 85.032 21.5061 84.8829 20.9299 84.5845C20.3639 84.2861 19.9112 83.8591 19.5717 83.3034C19.2424 82.7478 19.0778 82.0893 19.0778 81.3279C19.0778 80.5047 19.263 79.805 19.6334 79.2288C20.0038 78.6526 20.4926 78.2153 21.0996 77.9169C21.717 77.6185 22.3755 77.4693 23.0752 77.4693C24.0218 77.4693 24.7369 77.7266 25.2205 78.2411C25.7144 78.7452 25.9614 79.4089 25.9614 80.232L21.4083 80.8031C21.4701 81.6777 21.7273 82.3054 22.18 82.6861C22.6328 83.0668 23.1575 83.2571 23.7543 83.2571C24.0527 83.2571 24.3922 83.2057 24.7729 83.1028C25.1537 82.9896 25.4984 82.789 25.807 82.5009L26.054 82.7478C25.7659 83.4372 25.3697 83.9928 24.8656 84.4147C24.3717 84.8263 23.6977 85.032 22.8437 85.032ZM22.6122 78.133C22.2623 78.133 21.9794 78.3182 21.7633 78.6886C21.5472 79.0488 21.4238 79.5478 21.3929 80.1857L23.6308 79.9079C23.6102 79.4243 23.5228 79.0076 23.3684 78.6578C23.2244 78.3079 22.9723 78.133 22.6122 78.133ZM34.6184 83.1028C34.6184 83.4835 34.6442 83.7716 34.6956 83.9671C34.7471 84.1523 34.8397 84.2758 34.9734 84.3375C35.1072 84.3993 35.2975 84.4353 35.5445 84.4456V84.8005H31.6088V84.4456C31.7837 84.4353 31.9226 84.3993 32.0255 84.3375C32.1284 84.2758 32.2004 84.1523 32.2416 83.9671C32.2828 83.7716 32.3033 83.4835 32.3033 83.1028V80.0314C32.3033 79.733 32.257 79.4912 32.1644 79.306C32.0718 79.1105 31.8455 79.0128 31.4853 79.0128C31.2898 79.0128 31.0686 79.0436 30.8217 79.1054C30.585 79.1671 30.3072 79.3009 29.9882 79.5066V83.1028C29.9882 83.4835 30.0139 83.7716 30.0654 83.9671C30.1168 84.1523 30.2094 84.2758 30.3432 84.3375C30.477 84.3993 30.6673 84.4353 30.9143 84.4456V84.8005H26.9786V84.4456C27.1535 84.4353 27.2924 84.3993 27.3953 84.3375C27.4982 84.2758 27.5702 84.1523 27.6114 83.9671C27.6525 83.7716 27.6731 83.4835 27.6731 83.1028V79.5529C27.6731 79.3986 27.6422 79.2957 27.5805 79.2443C27.5291 79.1928 27.4467 79.1671 27.3336 79.1671C27.2101 79.1671 27.066 79.1877 26.9014 79.2288L26.7471 78.8738L29.9574 77.3767L30.05 77.4693C30.0294 77.562 30.0037 77.7574 29.9728 78.0558C29.9522 78.3542 29.9419 78.6578 29.9419 78.9665H29.9882C30.194 78.7298 30.4358 78.4983 30.7136 78.2719C30.9914 78.0456 31.3001 77.8552 31.6397 77.7009C31.9895 77.5465 32.3651 77.4693 32.7664 77.4693C33.4043 77.4693 33.8725 77.6237 34.1709 77.9324C34.4693 78.2308 34.6184 78.7144 34.6184 79.3832V83.1028ZM41.4906 83.2263L41.7375 83.4732C41.6244 83.7304 41.47 83.9774 41.2745 84.214C41.079 84.4507 40.8269 84.6462 40.5182 84.8005C40.2199 84.9549 39.8494 85.032 39.407 85.032C38.6764 85.032 38.1208 84.816 37.7401 84.3838C37.3594 83.9517 37.1691 83.396 37.1691 82.7169V78.5189H36.243V77.7009H37.1691V75.6173L39.5613 75.3857C39.5305 75.7767 39.5099 76.1626 39.4996 76.5433C39.4893 76.924 39.4842 77.3099 39.4842 77.7009H41.4906V78.5189H40.1015C39.69 78.5189 39.4842 78.7247 39.4842 79.1362V82.4083C39.4842 83.2314 39.8186 83.643 40.4874 83.643C40.8784 83.643 41.2128 83.5041 41.4906 83.2263ZM42.4751 84.8005V84.4456C42.65 84.4353 42.7889 84.3993 42.8918 84.3375C42.9947 84.2758 43.0668 84.1523 43.1079 83.9671C43.1491 83.7716 43.1697 83.4835 43.1697 83.1028V78.5189H42.2436V77.7009H43.1697V76.96C43.1697 76.2398 43.3137 75.6121 43.6018 75.0771C43.9002 74.5317 44.2912 74.079 44.7748 73.7189C45.2687 73.3484 45.8037 73.0706 46.3799 72.8854C46.9664 72.7002 47.5529 72.6076 48.1394 72.6076C48.6642 72.6076 49.1324 72.6591 49.5439 72.762C49.9658 72.8648 50.2796 72.9677 50.4854 73.0706C50.4751 73.225 50.4597 73.4668 50.4391 73.796C50.4288 74.1253 50.4237 74.5369 50.4237 75.0308V83.1028C50.4237 83.4835 50.4494 83.7716 50.5008 83.9671C50.5523 84.1523 50.6449 84.2758 50.7787 84.3375C50.9124 84.3993 51.1028 84.4353 51.3497 84.4456V84.8005H47.414V84.4456C47.5889 84.4353 47.7279 84.3993 47.8307 84.3375C47.9336 84.2758 48.0057 84.1523 48.0468 83.9671C48.088 83.7716 48.1086 83.4835 48.1086 83.1028V75.1388C48.1086 74.5317 48.0108 74.1047 47.8153 73.8578C47.6301 73.6108 47.3934 73.4874 47.1053 73.4874C46.8584 73.4874 46.6063 73.5851 46.3491 73.7806C46.1021 73.9658 45.8963 74.2745 45.7317 74.7066C45.5671 75.1285 45.4848 75.6996 45.4848 76.4198V77.7009H47.2597V78.5189H46.1021C45.6906 78.5189 45.4848 78.7247 45.4848 79.1362V83.1028C45.4848 83.4835 45.5053 83.7716 45.5465 83.9671C45.5877 84.1523 45.6597 84.2758 45.7626 84.3375C45.8655 84.3993 46.0044 84.4353 46.1793 84.4456V84.8005H42.4751ZM56.2053 77.4693C56.9564 77.4693 57.615 77.6237 58.1809 77.9324C58.7571 78.2308 59.2098 78.6578 59.5391 79.2134C59.8683 79.769 60.033 80.4173 60.033 81.1581C60.033 81.971 59.8426 82.6655 59.4619 83.2417C59.0812 83.8179 58.5822 84.2603 57.9648 84.569C57.3577 84.8777 56.6992 85.032 55.9892 85.032C55.2484 85.032 54.5899 84.8777 54.0137 84.569C53.4375 84.2603 52.9847 83.8333 52.6555 83.288C52.3262 82.7324 52.1616 82.0841 52.1616 81.3433C52.1616 80.5304 52.3519 79.8359 52.7326 79.2597C53.1133 78.6835 53.6072 78.2411 54.2143 77.9324C54.8317 77.6237 55.4953 77.4693 56.2053 77.4693ZM56.2516 84.3684C56.6323 84.3684 56.9461 84.1523 57.1931 83.7202C57.44 83.288 57.5635 82.6192 57.5635 81.7137C57.5635 81.0552 57.4966 80.4584 57.3629 79.9234C57.2291 79.378 57.0387 78.9459 56.7918 78.6269C56.5551 78.2976 56.2722 78.133 55.9429 78.133C55.5622 78.133 55.2484 78.3491 55.0014 78.7812C54.7545 79.2134 54.631 79.8822 54.631 80.7877C54.631 81.4462 54.6979 82.0481 54.8317 82.5935C54.9654 83.1285 55.1558 83.5607 55.4027 83.8899C55.6497 84.2089 55.9326 84.3684 56.2516 84.3684ZM63.6648 84.9549C63.5825 84.6874 63.5053 84.4558 63.4333 84.2603C63.3613 84.0546 63.2687 83.8282 63.1555 83.5812L61.2879 79.2443C61.1439 78.8944 61.0256 78.6423 60.933 78.488C60.8404 78.3234 60.7529 78.2153 60.6706 78.1639C60.5883 78.1021 60.4751 78.0661 60.331 78.0558V77.7009H64.0506V78.0558C63.8449 78.0661 63.7111 78.133 63.6494 78.2565C63.5979 78.38 63.5876 78.5292 63.6185 78.7041C63.6596 78.879 63.7162 79.0591 63.7883 79.2443L64.8995 81.8681H64.9304L65.9336 79.5684L65.7947 79.2443C65.6609 78.8944 65.5478 78.6423 65.4551 78.488C65.3625 78.3234 65.2802 78.2153 65.2082 78.1639C65.1465 78.1021 65.0693 78.0661 64.9767 78.0558V77.7009H68.6346V78.0558C68.3773 78.0661 68.2076 78.133 68.1252 78.2565C68.0532 78.38 68.0326 78.5292 68.0635 78.7041C68.0944 78.879 68.1458 79.0591 68.2178 79.2443L69.2674 81.8681H69.2982L70.2551 79.2443C70.3272 79.0591 70.3632 78.879 70.3632 78.7041C70.3632 78.5292 70.3014 78.38 70.178 78.2565C70.0648 78.133 69.859 78.0661 69.5606 78.0558V77.7009H72.0764V78.0558C71.8397 78.0764 71.6391 78.2102 71.4744 78.4571C71.3098 78.7041 71.1709 78.9665 71.0577 79.2443L69.3908 83.5812C69.2879 83.8591 69.2056 84.0906 69.1439 84.2758C69.0924 84.461 69.0359 84.6874 68.9741 84.9549H68.0944C68.0223 84.6874 67.94 84.4558 67.8474 84.2603C67.7548 84.0546 67.6571 83.8282 67.5542 83.5812L66.3195 80.5407L64.9921 83.5812C64.8687 83.8591 64.776 84.0906 64.7143 84.2758C64.6629 84.461 64.6063 84.6874 64.5445 84.9549H63.6648Z" fill="white"/>
</svg>
