<svg width="73" height="89" viewBox="0 0 73 89" fill="none" xmlns="http://www.w3.org/2000/svg">
<path d="M18.4792 34.2668L38.7365 0.118896C44.7172 13.0449 44.7172 12.6591 51.4696 27.5144C39.2767 20.106 30.0548 25.3279 26.968 28.8649C29.5403 28.7363 36.6143 28.8649 40.8587 30.0224C45.7976 31.2572 50.505 34.8456 55.3281 35.2314C52.0484 36.8392 45.103 38.6934 37.7719 35.2314C30.8265 31.9517 21.8876 32.9806 18.4792 34.2668Z" fill="#C39B4E"/>
<path d="M36.6142 47.7715C22.8778 40.6718 13.3344 45.1993 10.3762 48.3504C15.7782 36.0031 30.6335 36.389 38.7363 41.0191C44.91 45.3407 57 45.9066 62.2733 45.6494C59.4437 49.3149 50.3505 54.8712 36.6142 47.7715Z" fill="#C39B4E"/>
<path d="M34.6849 62.0483C18.7878 51.7075 7.09645 56.6463 3.62378 60.5049C14.0418 42.9486 29.8617 49.1221 37.7717 54.9099C44.91 60.133 60.9228 62.0483 69.7974 61.0837C64.4598 65.6496 49.5141 71.6945 34.6849 62.0483Z" fill="#C39B4E"/>
<path d="M9.36527 83.029C9.50932 83.3788 9.62765 83.6361 9.72026 83.8007C9.82315 83.9653 9.93119 84.0734 10.0444 84.1248C10.1576 84.166 10.2965 84.1968 10.4611 84.2174V84.5724H6.15498V84.2174C6.56656 84.1968 6.79293 84.0734 6.83408 83.847C6.88553 83.6206 6.84952 83.348 6.72604 83.029L5.95434 81.0225C5.8926 81.074 5.81029 81.11 5.70739 81.1306C5.61479 81.1409 5.5119 81.146 5.39871 81.146H3.65466C3.43858 81.146 3.27395 81.1717 3.16077 81.2232C3.04759 81.2746 2.94984 81.4033 2.86752 81.609L2.3119 83.029C2.17813 83.3685 2.18842 83.6463 2.34276 83.8624C2.4971 84.0785 2.80064 84.1968 3.25337 84.2174V84.5724H0.444371V84.2174C0.670737 84.1968 0.861091 84.0836 1.01543 83.8779C1.18006 83.6618 1.32926 83.3788 1.46302 83.029L4.42636 75.528C4.53955 75.2605 4.6373 74.9981 4.71961 74.7409C4.81222 74.4836 4.89453 74.2213 4.96656 73.9537H5.86173C5.93376 74.2213 6.01608 74.4836 6.10868 74.7409C6.20128 74.9981 6.29903 75.2605 6.40193 75.528L9.36527 83.029ZM5.32154 80.4824C5.46559 80.4824 5.5582 80.4618 5.59936 80.4206C5.6508 80.3692 5.64566 80.2663 5.58392 80.1119L4.51897 77.4727H4.4881L3.28424 80.5441C3.33569 80.5132 3.39743 80.4978 3.46945 80.4978C3.54148 80.4875 3.62379 80.4824 3.7164 80.4824H5.32154ZM13.4258 88.1994C12.9833 88.1994 12.5563 88.1582 12.1447 88.0759C11.7434 88.0039 11.4142 87.8598 11.157 87.6438C10.8997 87.438 10.7711 87.1396 10.7711 86.7486C10.7711 86.3782 10.8894 86.0438 11.1261 85.7454C11.373 85.4573 11.6766 85.2412 12.0367 85.0971L12.3917 85.1589C12.2991 85.3647 12.2322 85.5602 12.191 85.7454C12.1499 85.9306 12.1293 86.0952 12.1293 86.2393C12.1293 86.6406 12.2888 86.9492 12.6078 87.1653C12.937 87.3917 13.3846 87.5049 13.9505 87.5049C14.4753 87.5049 14.9074 87.4225 15.247 87.2579C15.5865 87.0933 15.8386 86.8875 16.0033 86.6406C16.1679 86.4039 16.2502 86.1775 16.2502 85.9615C16.2502 85.7968 16.1885 85.6425 16.065 85.4984C15.9518 85.3544 15.7152 85.2566 15.355 85.2052L12.2219 84.7267C11.8926 84.6753 11.656 84.5467 11.5119 84.3409C11.3782 84.1351 11.3113 83.8984 11.3113 83.6309C11.3113 83.2708 11.4193 82.9209 11.6354 82.5814C11.8515 82.2316 12.155 81.9332 12.546 81.6862C12.083 81.501 11.7074 81.2386 11.4193 80.8991C11.1415 80.5492 11.0026 80.1222 11.0026 79.618C11.0026 79.1139 11.1467 78.6817 11.4348 78.3216C11.7229 77.9512 12.1087 77.6682 12.5923 77.4727C13.0862 77.2772 13.647 77.1795 14.2746 77.1795C15.0463 77.1795 15.7049 77.3235 16.2502 77.6116C16.5795 77.5705 16.847 77.4213 17.0528 77.164C17.2689 76.8965 17.3769 76.5106 17.3769 76.0065H17.7319C17.9891 76.1402 18.164 76.2997 18.2566 76.4849C18.3492 76.6598 18.3955 76.8348 18.3955 77.0097C18.3955 77.3698 18.2566 77.6476 17.9788 77.8431C17.701 78.0283 17.3357 78.1107 16.883 78.0901C17.0579 78.2753 17.1917 78.4914 17.2843 78.7383C17.3872 78.975 17.4386 79.2373 17.4386 79.5254C17.4386 80.0296 17.2946 80.4669 17.0065 80.8373C16.7184 81.1975 16.3274 81.4753 15.8335 81.6708C15.3396 81.8663 14.784 81.964 14.1666 81.964C13.7859 81.964 13.4258 81.928 13.0862 81.856C12.9319 81.9898 12.8547 82.1389 12.8547 82.3036C12.8547 82.3756 12.8753 82.4476 12.9164 82.5197C12.9576 82.5814 13.0502 82.6225 13.1943 82.6431L16.8213 83.1988C17.4592 83.3016 17.8965 83.5074 18.1332 83.8161C18.3698 84.1145 18.4881 84.4438 18.4881 84.8039C18.4881 85.1537 18.3904 85.5242 18.1949 85.9152C17.9994 86.3164 17.6959 86.6869 17.2843 87.0264C16.8727 87.3762 16.348 87.6592 15.71 87.8753C15.0721 88.0914 14.3107 88.1994 13.4258 88.1994ZM14.2901 81.3775C14.6193 81.3775 14.8663 81.2232 15.0309 80.9145C15.1955 80.6058 15.2779 80.1943 15.2779 79.6798C15.2779 79.0727 15.1698 78.6045 14.9537 78.2753C14.748 77.9357 14.4804 77.766 14.1512 77.766C13.8322 77.766 13.5852 77.9203 13.4103 78.229C13.2457 78.5377 13.1634 78.9492 13.1634 79.4637C13.1634 80.0605 13.2714 80.5287 13.4875 80.8682C13.7036 81.2078 13.9711 81.3775 14.2901 81.3775ZM22.8437 84.8039C22.144 84.8039 21.5061 84.6547 20.9299 84.3563C20.3639 84.0579 19.9112 83.6309 19.5717 83.0753C19.2424 82.5197 19.0778 81.8611 19.0778 81.0997C19.0778 80.2766 19.263 79.5769 19.6334 79.0007C20.0038 78.4245 20.4926 77.9872 21.0996 77.6888C21.717 77.3904 22.3755 77.2412 23.0752 77.2412C24.0218 77.2412 24.7369 77.4984 25.2205 78.0129C25.7144 78.5171 25.9614 79.1807 25.9614 80.0039L21.4083 80.575C21.4701 81.4496 21.7273 82.0772 22.18 82.4579C22.6328 82.8386 23.1575 83.029 23.7543 83.029C24.0527 83.029 24.3922 82.9775 24.773 82.8746C25.1537 82.7615 25.4984 82.5608 25.807 82.2727L26.054 82.5197C25.7659 83.209 25.3697 83.7647 24.8656 84.1865C24.3717 84.5981 23.6977 84.8039 22.8437 84.8039ZM22.6122 77.9049C22.2623 77.9049 21.9794 78.0901 21.7633 78.4605C21.5472 78.8206 21.4238 79.3197 21.3929 79.9576L23.6308 79.6798C23.6102 79.1962 23.5228 78.7795 23.3684 78.4296C23.2244 78.0798 22.9723 77.9049 22.6122 77.9049ZM34.6185 82.8746C34.6185 83.2553 34.6442 83.5434 34.6956 83.7389C34.7471 83.9242 34.8397 84.0476 34.9734 84.1094C35.1072 84.1711 35.2976 84.2071 35.5445 84.2174V84.5724H31.6088V84.2174C31.7837 84.2071 31.9226 84.1711 32.0255 84.1094C32.1284 84.0476 32.2004 83.9242 32.2416 83.7389C32.2828 83.5434 32.3033 83.2553 32.3033 82.8746V79.8033C32.3033 79.5049 32.257 79.2631 32.1644 79.0779C32.0718 78.8824 31.8455 78.7846 31.4853 78.7846C31.2898 78.7846 31.0686 78.8155 30.8217 78.8772C30.585 78.9389 30.3072 79.0727 29.9882 79.2785V82.8746C29.9882 83.2553 30.0139 83.5434 30.0654 83.7389C30.1168 83.9242 30.2094 84.0476 30.3432 84.1094C30.477 84.1711 30.6673 84.2071 30.9143 84.2174V84.5724H26.9786V84.2174C27.1535 84.2071 27.2924 84.1711 27.3953 84.1094C27.4982 84.0476 27.5702 83.9242 27.6114 83.7389C27.6525 83.5434 27.6731 83.2553 27.6731 82.8746V79.3248C27.6731 79.1705 27.6422 79.0676 27.5805 79.0161C27.5291 78.9647 27.4467 78.9389 27.3336 78.9389C27.2101 78.9389 27.066 78.9595 26.9014 79.0007L26.7471 78.6457L29.9574 77.1486L30.05 77.2412C30.0294 77.3338 30.0037 77.5293 29.9728 77.8277C29.9522 78.1261 29.9419 78.4296 29.9419 78.7383H29.9882C30.194 78.5016 30.4358 78.2701 30.7136 78.0438C30.9914 77.8174 31.3001 77.627 31.6397 77.4727C31.9895 77.3184 32.3651 77.2412 32.7664 77.2412C33.4043 77.2412 33.8725 77.3955 34.1709 77.7042C34.4693 78.0026 34.6185 78.4862 34.6185 79.155V82.8746ZM41.4906 82.9981L41.7375 83.2451C41.6244 83.5023 41.47 83.7492 41.2745 83.9859C41.079 84.2225 40.8269 84.418 40.5182 84.5724C40.2199 84.7267 39.8494 84.8039 39.407 84.8039C38.6764 84.8039 38.1208 84.5878 37.7401 84.1557C37.3594 83.7235 37.1691 83.1679 37.1691 82.4888V78.2907H36.243V77.4727H37.1691V75.3891L39.5613 75.1576C39.5305 75.5486 39.5099 75.9344 39.4996 76.3152C39.4893 76.6959 39.4842 77.0817 39.4842 77.4727H41.4906V78.2907H40.1015C39.69 78.2907 39.4842 78.4965 39.4842 78.9081V82.1801C39.4842 83.0033 39.8186 83.4148 40.4874 83.4148C40.8784 83.4148 41.2128 83.2759 41.4906 82.9981ZM42.4751 84.5724V84.2174C42.65 84.2071 42.789 84.1711 42.8918 84.1094C42.9947 84.0476 43.0668 83.9242 43.1079 83.7389C43.1491 83.5434 43.1697 83.2553 43.1697 82.8746V78.2907H42.2436V77.4727H43.1697V76.7319C43.1697 76.0116 43.3137 75.384 43.6018 74.8489C43.9002 74.3036 44.2912 73.8508 44.7748 73.4907C45.2687 73.1203 45.8037 72.8425 46.3799 72.6573C46.9664 72.4721 47.5529 72.3795 48.1394 72.3795C48.6642 72.3795 49.1324 72.4309 49.5439 72.5338C49.9658 72.6367 50.2796 72.7396 50.4854 72.8425C50.4751 72.9968 50.4597 73.2386 50.4391 73.5679C50.4288 73.8971 50.4237 74.3087 50.4237 74.8026V82.8746C50.4237 83.2553 50.4494 83.5434 50.5008 83.7389C50.5523 83.9242 50.6449 84.0476 50.7787 84.1094C50.9124 84.1711 51.1028 84.2071 51.3497 84.2174V84.5724H47.414V84.2174C47.589 84.2071 47.7279 84.1711 47.8308 84.1094C47.9336 84.0476 48.0057 83.9242 48.0468 83.7389C48.088 83.5434 48.1086 83.2553 48.1086 82.8746V74.9106C48.1086 74.3036 48.0108 73.8766 47.8153 73.6296C47.6301 73.3827 47.3935 73.2592 47.1054 73.2592C46.8584 73.2592 46.6063 73.357 46.3491 73.5524C46.1021 73.7377 45.8963 74.0463 45.7317 74.4785C45.5671 74.9004 45.4848 75.4714 45.4848 76.1917V77.4727H47.2597V78.2907H46.1021C45.6906 78.2907 45.4848 78.4965 45.4848 78.9081V82.8746C45.4848 83.2553 45.5053 83.5434 45.5465 83.7389C45.5877 83.9242 45.6597 84.0476 45.7626 84.1094C45.8655 84.1711 46.0044 84.2071 46.1793 84.2174V84.5724H42.4751ZM56.2053 77.2412C56.9564 77.2412 57.615 77.3955 58.1809 77.7042C58.7571 78.0026 59.2098 78.4296 59.5391 78.9852C59.8683 79.5409 60.033 80.1891 60.033 80.9299C60.033 81.7428 59.8426 82.4373 59.4619 83.0135C59.0812 83.5898 58.5822 84.0322 57.9648 84.3409C57.3577 84.6496 56.6992 84.8039 55.9892 84.8039C55.2484 84.8039 54.5899 84.6496 54.0137 84.3409C53.4375 84.0322 52.9847 83.6052 52.6555 83.0598C52.3262 82.5042 52.1616 81.856 52.1616 81.1152C52.1616 80.3023 52.3519 79.6078 52.7326 79.0316C53.1134 78.4553 53.6072 78.0129 54.2143 77.7042C54.8317 77.3955 55.4953 77.2412 56.2053 77.2412ZM56.2516 84.1402C56.6323 84.1402 56.9461 83.9242 57.1931 83.492C57.44 83.0598 57.5635 82.391 57.5635 81.4856C57.5635 80.827 57.4966 80.2303 57.3629 79.6952C57.2291 79.1499 57.0388 78.7177 56.7918 78.3988C56.5552 78.0695 56.2722 77.9049 55.9429 77.9049C55.5622 77.9049 55.2484 78.1209 55.0015 78.5531C54.7545 78.9852 54.631 79.6541 54.631 80.5595C54.631 81.218 54.6979 81.82 54.8317 82.3653C54.9654 82.9004 55.1558 83.3325 55.4027 83.6618C55.6497 83.9807 55.9326 84.1402 56.2516 84.1402ZM63.6648 84.7267C63.5825 84.4592 63.5053 84.2277 63.4333 84.0322C63.3613 83.8264 63.2687 83.6 63.1555 83.3531L61.2879 79.0161C61.1439 78.6663 61.0256 78.4142 60.933 78.2598C60.8404 78.0952 60.7529 77.9872 60.6706 77.9357C60.5883 77.874 60.4751 77.838 60.331 77.8277V77.4727H64.0506V77.8277C63.8449 77.838 63.7111 77.9049 63.6494 78.0283C63.5979 78.1518 63.5876 78.301 63.6185 78.4759C63.6597 78.6508 63.7162 78.8309 63.7883 79.0161L64.8995 81.6399H64.9304L65.9336 79.3402L65.7947 79.0161C65.6609 78.6663 65.5478 78.4142 65.4552 78.2598C65.3625 78.0952 65.2802 77.9872 65.2082 77.9357C65.1465 77.874 65.0693 77.838 64.9767 77.8277V77.4727H68.6346V77.8277C68.3773 77.838 68.2076 77.9049 68.1252 78.0283C68.0532 78.1518 68.0326 78.301 68.0635 78.4759C68.0944 78.6508 68.1458 78.8309 68.2179 79.0161L69.2674 81.6399H69.2982L70.2552 79.0161C70.3272 78.8309 70.3632 78.6508 70.3632 78.4759C70.3632 78.301 70.3015 78.1518 70.178 78.0283C70.0648 77.9049 69.859 77.838 69.5606 77.8277V77.4727H72.0764V77.8277C71.8397 77.8483 71.6391 77.982 71.4744 78.229C71.3098 78.4759 71.1709 78.7383 71.0577 79.0161L69.3908 83.3531C69.2879 83.6309 69.2056 83.8624 69.1439 84.0476C69.0924 84.2328 69.0359 84.4592 68.9741 84.7267H68.0944C68.0224 84.4592 67.94 84.2277 67.8474 84.0322C67.7548 83.8264 67.6571 83.6 67.5542 83.3531L66.3195 80.3126L64.9921 83.3531C64.8687 83.6309 64.7761 83.8624 64.7143 84.0476C64.6629 84.2328 64.6063 84.4592 64.5445 84.7267H63.6648Z" fill="#C39B4E"/>
</svg>
